<svg xmlns="http://www.w3.org/2000/svg" xmlns:xlink="http://www.w3.org/1999/xlink" width="2000" zoomAndPan="magnify" viewBox="0 0 1500 1499.999933" height="2000" preserveAspectRatio="xMidYMid meet" version="1.0"><defs><clipPath id="61142636a3"><path d="M 210.75 0 L 1289.25 0 L 1289.25 1500 L 210.75 1500 Z M 210.75 0 " clip-rule="nonzero"/></clipPath></defs><g clip-path="url(#61142636a3)"><path fill="#000000" d="M 1253.402344 374.523438 L 1253.402344 338.691406 L 903.195312 338.691406 L 903.195312 35.832031 L 867.363281 35.832031 L 867.363281 0 L 596.789062 0 L 596.789062 338.691406 L 210.75 338.691406 L 210.75 605.597656 L 246.582031 605.597656 L 246.582031 641.429688 L 596.789062 641.429688 L 596.789062 1464.167969 L 632.621094 1464.167969 L 632.621094 1500 L 903.195312 1500 L 903.195312 641.429688 L 1289.234375 641.429688 L 1289.234375 374.523438 Z M 1253.402344 374.523438 " fill-opacity="1" fill-rule="nonzero"/></g><path fill="#dfb160" d="M 854.566406 592.800781 L 1240.605469 592.800781 L 1240.605469 351.488281 L 854.566406 351.488281 L 854.566406 12.796875 L 609.585938 12.796875 L 609.585938 351.488281 L 223.546875 351.488281 L 223.546875 592.800781 L 609.585938 592.800781 L 609.585938 1451.371094 L 854.566406 1451.371094 Z M 854.566406 592.800781 " fill-opacity="1" fill-rule="nonzero"/></svg>